<?xml version="1.0" encoding="UTF-8" standalone="no"?><svg xmlns="http://www.w3.org/2000/svg" xmlns:xlink="http://www.w3.org/1999/xlink" contentScriptType="application/ecmascript" contentStyleType="text/css" height="1115px" preserveAspectRatio="none" style="width:1723px;height:1115px;" version="1.1" viewBox="0 0 1723 1115" width="1723px" zoomAndPan="magnify"><defs><filter height="300%" id="f126oodmkuug39" width="300%" x="-1" y="-1"><feGaussianBlur result="blurOut" stdDeviation="2.0"/><feColorMatrix in="blurOut" result="blurOut2" type="matrix" values="0 0 0 0 0 0 0 0 0 0 0 0 0 0 0 0 0 0 .4 0"/><feOffset dx="4.0" dy="4.0" in="blurOut2" result="blurOut3"/><feBlend in="SourceGraphic" in2="blurOut3" mode="normal"/></filter></defs><g><!--MD5=[39264fbd208e229ca77ba88d38e090d7]
class raw--><rect fill="#FFFFFF" filter="url(#f126oodmkuug39)" height="92.9457" id="raw" style="stroke: #000000; stroke-width: 1.5;" width="152" x="711" y="98"/><ellipse cx="754.8" cy="114" fill="#ADD1B2" rx="11" ry="11" style="stroke: #000000; stroke-width: 1.0;"/><path d="M751.1594,120.5 L751.1594,108.3594 L758.8156,108.3594 L758.8156,110.4844 L753.5344,110.4844 L753.5344,113.1406 L758.55,113.1406 L758.55,115.2656 L753.5344,115.2656 L753.5344,118.375 L758.8156,118.375 L758.8156,120.5 L751.1594,120.5 Z "/><text fill="#000000" font-family="sans-serif" font-size="12" lengthAdjust="spacingAndGlyphs" textLength="56" x="775.2" y="118.656">raw_spots</text><line style="stroke: #000000; stroke-width: 1.5;" x1="712" x2="862" y1="130" y2="130"/><ellipse cx="722" cy="141" fill="#000000" rx="3" ry="3" style="stroke: #000000; stroke-width: 1.0;"/><text fill="#000000" font-family="sans-serif" font-size="11" lengthAdjust="spacingAndGlyphs" textLength="93" x="731" y="145.7589">id : INTEGER «PK»</text><line style="stroke: #000000; stroke-width: 1.0;" x1="712" x2="862" y1="152.9819" y2="152.9819"/><ellipse cx="722" cy="163.9819" fill="#000000" rx="3" ry="3" style="stroke: #000000; stroke-width: 1.0;"/><text fill="#000000" font-family="sans-serif" font-size="11" lengthAdjust="spacingAndGlyphs" textLength="126" x="731" y="168.7408">timestamp : TIMESTAMP</text><ellipse cx="722" cy="178.9638" fill="#000000" rx="3" ry="3" style="stroke: #000000; stroke-width: 1.0;"/><text fill="#000000" font-family="sans-serif" font-size="11" lengthAdjust="spacingAndGlyphs" textLength="78" x="731" y="183.7227">raw_text : TEXT</text><!--MD5=[5aff840067b4b8c8905023c77f14249b]
class spots--><rect fill="#FFFFFF" filter="url(#f126oodmkuug39)" height="212.8008" id="spots" style="stroke: #000000; stroke-width: 1.5;" width="173" x="314.5" y="360"/><ellipse cx="372.75" cy="376" fill="#ADD1B2" rx="11" ry="11" style="stroke: #000000; stroke-width: 1.0;"/><path d="M369.1094,382.5 L369.1094,370.3594 L376.7656,370.3594 L376.7656,372.4844 L371.4844,372.4844 L371.4844,375.1406 L376.5,375.1406 L376.5,377.2656 L371.4844,377.2656 L371.4844,380.375 L376.7656,380.375 L376.7656,382.5 L369.1094,382.5 Z "/><text fill="#000000" font-family="sans-serif" font-size="12" lengthAdjust="spacingAndGlyphs" textLength="48" x="393.25" y="380.656">dx_spots</text><line style="stroke: #000000; stroke-width: 1.5;" x1="315.5" x2="486.5" y1="392" y2="392"/><ellipse cx="325.5" cy="403" fill="#000000" rx="3" ry="3" style="stroke: #000000; stroke-width: 1.0;"/><text fill="#000000" font-family="sans-serif" font-size="11" lengthAdjust="spacingAndGlyphs" textLength="93" x="334.5" y="407.7589">id : INTEGER «PK»</text><line style="stroke: #000000; stroke-width: 1.0;" x1="315.5" x2="486.5" y1="414.9819" y2="414.9819"/><ellipse cx="325.5" cy="425.9819" fill="#000000" rx="3" ry="3" style="stroke: #000000; stroke-width: 1.0;"/><text fill="#000000" font-family="sans-serif" font-size="11" lengthAdjust="spacingAndGlyphs" textLength="145" x="334.5" y="430.7408">raw_spot_id : INTEGER «FK»</text><ellipse cx="325.5" cy="440.9638" fill="#000000" rx="3" ry="3" style="stroke: #000000; stroke-width: 1.0;"/><text fill="#000000" font-family="sans-serif" font-size="11" lengthAdjust="spacingAndGlyphs" textLength="126" x="334.5" y="445.7227">timestamp : TIMESTAMP</text><ellipse cx="325.5" cy="455.9457" fill="#000000" rx="3" ry="3" style="stroke: #000000; stroke-width: 1.0;"/><text fill="#000000" font-family="sans-serif" font-size="11" lengthAdjust="spacingAndGlyphs" textLength="112" x="334.5" y="460.7046">dx_call : VARCHAR(20)</text><ellipse cx="325.5" cy="470.9276" fill="#000000" rx="3" ry="3" style="stroke: #000000; stroke-width: 1.0;"/><text fill="#000000" font-family="sans-serif" font-size="11" lengthAdjust="spacingAndGlyphs" textLength="139" x="334.5" y="475.6865">frequency : NUMERIC(10,3)</text><ellipse cx="325.5" cy="485.9094" fill="#000000" rx="3" ry="3" style="stroke: #000000; stroke-width: 1.0;"/><text fill="#000000" font-family="sans-serif" font-size="11" lengthAdjust="spacingAndGlyphs" textLength="137" x="334.5" y="490.6684">spotter_call : VARCHAR(20)</text><text fill="#000000" font-family="sans-serif" font-size="11" lengthAdjust="spacingAndGlyphs" textLength="82" x="334.5" y="505.6502">comment : TEXT</text><text fill="#000000" font-family="sans-serif" font-size="11" lengthAdjust="spacingAndGlyphs" textLength="107" x="334.5" y="520.6321">mode : VARCHAR(10)</text><text fill="#000000" font-family="sans-serif" font-size="11" lengthAdjust="spacingAndGlyphs" textLength="147" x="334.5" y="535.614">signal_report : VARCHAR(10)</text><text fill="#000000" font-family="sans-serif" font-size="11" lengthAdjust="spacingAndGlyphs" textLength="134" x="334.5" y="550.5959">grid_square : VARCHAR(6)</text><text fill="#000000" font-family="sans-serif" font-size="11" lengthAdjust="spacingAndGlyphs" textLength="104" x="334.5" y="565.5778">band : VARCHAR(10)</text><!--MD5=[55bae75d1ce8a60fab95ce1bf5b12443]
class calls--><rect fill="#FFFFFF" filter="url(#f126oodmkuug39)" height="137.8913" id="calls" style="stroke: #000000; stroke-width: 1.5;" width="194" x="50" y="652"/><ellipse cx="118.75" cy="668" fill="#ADD1B2" rx="11" ry="11" style="stroke: #000000; stroke-width: 1.0;"/><path d="M115.1094,674.5 L115.1094,662.3594 L122.7656,662.3594 L122.7656,664.4844 L117.4844,664.4844 L117.4844,667.1406 L122.5,667.1406 L122.5,669.2656 L117.4844,669.2656 L117.4844,672.375 L122.7656,672.375 L122.7656,674.5 L115.1094,674.5 Z "/><text fill="#000000" font-family="sans-serif" font-size="12" lengthAdjust="spacingAndGlyphs" textLength="48" x="139.25" y="672.656">callsigns</text><line style="stroke: #000000; stroke-width: 1.5;" x1="51" x2="243" y1="684" y2="684"/><ellipse cx="61" cy="695" fill="#000000" rx="3" ry="3" style="stroke: #000000; stroke-width: 1.0;"/><text fill="#000000" font-family="sans-serif" font-size="11" lengthAdjust="spacingAndGlyphs" textLength="93" x="70" y="699.7589">id : INTEGER «PK»</text><line style="stroke: #000000; stroke-width: 1.0;" x1="51" x2="243" y1="706.9819" y2="706.9819"/><ellipse cx="61" cy="717.9819" fill="#000000" rx="3" ry="3" style="stroke: #000000; stroke-width: 1.0;"/><text fill="#000000" font-family="sans-serif" font-size="11" lengthAdjust="spacingAndGlyphs" textLength="168" x="70" y="722.7408">callsign : VARCHAR(20) «unique»</text><ellipse cx="61" cy="732.9638" fill="#000000" rx="3" ry="3" style="stroke: #000000; stroke-width: 1.0;"/><text fill="#000000" font-family="sans-serif" font-size="11" lengthAdjust="spacingAndGlyphs" textLength="121" x="70" y="737.7227">first_seen : TIMESTAMP</text><ellipse cx="61" cy="747.9457" fill="#000000" rx="3" ry="3" style="stroke: #000000; stroke-width: 1.0;"/><text fill="#000000" font-family="sans-serif" font-size="11" lengthAdjust="spacingAndGlyphs" textLength="118" x="70" y="752.7046">last_seen : TIMESTAMP</text><ellipse cx="61" cy="762.9276" fill="#000000" rx="3" ry="3" style="stroke: #000000; stroke-width: 1.0;"/><text fill="#000000" font-family="sans-serif" font-size="11" lengthAdjust="spacingAndGlyphs" textLength="111" x="70" y="767.6865">total_spots : INTEGER</text><ellipse cx="61" cy="777.9094" fill="#000000" rx="3" ry="3" style="stroke: #000000; stroke-width: 1.0;"/><text fill="#000000" font-family="sans-serif" font-size="11" lengthAdjust="spacingAndGlyphs" textLength="123" x="70" y="782.6684">total_spotted : INTEGER</text><!--MD5=[8413f8248b2da7966d2de021109ec289]
class users--><rect fill="#FFFFFF" filter="url(#f126oodmkuug39)" height="272.7283" id="users" style="stroke: #000000; stroke-width: 1.5;" width="285" x="1143.5" y="8"/><ellipse cx="1233.75" cy="24" fill="#ADD1B2" rx="11" ry="11" style="stroke: #000000; stroke-width: 1.0;"/><path d="M1230.1094,30.5 L1230.1094,18.3594 L1237.7656,18.3594 L1237.7656,20.4844 L1232.4844,20.4844 L1232.4844,23.1406 L1237.5,23.1406 L1237.5,25.2656 L1232.4844,25.2656 L1232.4844,28.375 L1237.7656,28.375 L1237.7656,30.5 L1230.1094,30.5 Z "/><text fill="#000000" font-family="sans-serif" font-size="12" lengthAdjust="spacingAndGlyphs" textLength="96" x="1254.25" y="28.656">dashboard_users</text><line style="stroke: #000000; stroke-width: 1.5;" x1="1144.5" x2="1427.5" y1="40" y2="40"/><ellipse cx="1154.5" cy="51" fill="#000000" rx="3" ry="3" style="stroke: #000000; stroke-width: 1.0;"/><text fill="#000000" font-family="sans-serif" font-size="11" lengthAdjust="spacingAndGlyphs" textLength="84" x="1163.5" y="55.7589">id : SERIAL «PK»</text><line style="stroke: #000000; stroke-width: 1.0;" x1="1144.5" x2="1427.5" y1="62.9819" y2="62.9819"/><ellipse cx="1154.5" cy="73.9819" fill="#000000" rx="3" ry="3" style="stroke: #000000; stroke-width: 1.0;"/><text fill="#000000" font-family="sans-serif" font-size="11" lengthAdjust="spacingAndGlyphs" textLength="168" x="1163.5" y="78.7408">callsign : VARCHAR(20) «unique»</text><text fill="#000000" font-family="sans-serif" font-size="11" lengthAdjust="spacingAndGlyphs" textLength="112" x="1163.5" y="93.7227">name : VARCHAR(100)</text><text fill="#000000" font-family="sans-serif" font-size="11" lengthAdjust="spacingAndGlyphs" textLength="134" x="1163.5" y="108.7046">grid_square : VARCHAR(6)</text><text fill="#000000" font-family="sans-serif" font-size="11" lengthAdjust="spacingAndGlyphs" textLength="111" x="1163.5" y="123.6865">email : VARCHAR(255)</text><text fill="#000000" font-family="sans-serif" font-size="11" lengthAdjust="spacingAndGlyphs" textLength="111" x="1163.5" y="138.6684">phone : VARCHAR(20)</text><ellipse cx="1154.5" cy="148.8913" fill="#000000" rx="3" ry="3" style="stroke: #000000; stroke-width: 1.0;"/><text fill="#000000" font-family="sans-serif" font-size="11" lengthAdjust="spacingAndGlyphs" textLength="164" x="1163.5" y="153.6502">password_hash : VARCHAR(255)</text><text fill="#000000" font-family="sans-serif" font-size="11" lengthAdjust="spacingAndGlyphs" textLength="150" x="1163.5" y="168.6321">session_token : VARCHAR(64)</text><text fill="#000000" font-family="sans-serif" font-size="11" lengthAdjust="spacingAndGlyphs" textLength="259" x="1163.5" y="183.614">session_expires_at : TIMESTAMP WITH TIME ZONE</text><text fill="#000000" font-family="sans-serif" font-size="11" lengthAdjust="spacingAndGlyphs" textLength="125" x="1163.5" y="198.5959">timezone : VARCHAR(50)</text><text fill="#000000" font-family="sans-serif" font-size="11" lengthAdjust="spacingAndGlyphs" textLength="162" x="1163.5" y="213.5778">sms_alerts_enabled : BOOLEAN</text><text fill="#000000" font-family="sans-serif" font-size="11" lengthAdjust="spacingAndGlyphs" textLength="170" x="1163.5" y="228.5597">email_alerts_enabled : BOOLEAN</text><text fill="#000000" font-family="sans-serif" font-size="11" lengthAdjust="spacingAndGlyphs" textLength="104" x="1163.5" y="243.5416">preferences : JSONB</text><ellipse cx="1154.5" cy="253.7645" fill="#000000" rx="3" ry="3" style="stroke: #000000; stroke-width: 1.0;"/><text fill="#000000" font-family="sans-serif" font-size="11" lengthAdjust="spacingAndGlyphs" textLength="217" x="1163.5" y="258.5235">created_at : TIMESTAMP WITH TIME ZONE</text><text fill="#000000" font-family="sans-serif" font-size="11" lengthAdjust="spacingAndGlyphs" textLength="213" x="1163.5" y="273.5053">last_login : TIMESTAMP WITH TIME ZONE</text><!--MD5=[b4bba359ff119b525e3ed875fdc58deb]
class prefixes--><rect fill="#FFFFFF" filter="url(#f126oodmkuug39)" height="152.8732" id="prefixes" style="stroke: #000000; stroke-width: 1.5;" width="248" x="1464" y="68"/><ellipse cx="1537.75" cy="84" fill="#ADD1B2" rx="11" ry="11" style="stroke: #000000; stroke-width: 1.0;"/><path d="M1534.1094,90.5 L1534.1094,78.3594 L1541.7656,78.3594 L1541.7656,80.4844 L1536.4844,80.4844 L1536.4844,83.1406 L1541.5,83.1406 L1541.5,85.2656 L1536.4844,85.2656 L1536.4844,88.375 L1541.7656,88.375 L1541.7656,90.5 L1534.1094,90.5 Z "/><text fill="#000000" font-family="sans-serif" font-size="12" lengthAdjust="spacingAndGlyphs" textLength="92" x="1558.25" y="88.656">callsign_prefixes</text><line style="stroke: #000000; stroke-width: 1.5;" x1="1465" x2="1711" y1="100" y2="100"/><ellipse cx="1475" cy="111" fill="#000000" rx="3" ry="3" style="stroke: #000000; stroke-width: 1.0;"/><text fill="#000000" font-family="sans-serif" font-size="11" lengthAdjust="spacingAndGlyphs" textLength="84" x="1484" y="115.7589">id : SERIAL «PK»</text><line style="stroke: #000000; stroke-width: 1.0;" x1="1465" x2="1711" y1="122.9819" y2="122.9819"/><ellipse cx="1475" cy="133.9819" fill="#000000" rx="3" ry="3" style="stroke: #000000; stroke-width: 1.0;"/><text fill="#000000" font-family="sans-serif" font-size="11" lengthAdjust="spacingAndGlyphs" textLength="160" x="1484" y="138.7408">prefix : VARCHAR(10) «unique»</text><ellipse cx="1475" cy="148.9638" fill="#000000" rx="3" ry="3" style="stroke: #000000; stroke-width: 1.0;"/><text fill="#000000" font-family="sans-serif" font-size="11" lengthAdjust="spacingAndGlyphs" textLength="124" x="1484" y="153.7227">country : VARCHAR(255)</text><ellipse cx="1475" cy="163.9457" fill="#000000" rx="3" ry="3" style="stroke: #000000; stroke-width: 1.0;"/><text fill="#000000" font-family="sans-serif" font-size="11" lengthAdjust="spacingAndGlyphs" textLength="118" x="1484" y="168.7046">latitude : DECIMAL(9,6)</text><ellipse cx="1475" cy="178.9276" fill="#000000" rx="3" ry="3" style="stroke: #000000; stroke-width: 1.0;"/><text fill="#000000" font-family="sans-serif" font-size="11" lengthAdjust="spacingAndGlyphs" textLength="135" x="1484" y="183.6865">longitude : DECIMAL(10,6)</text><ellipse cx="1475" cy="193.9094" fill="#000000" rx="3" ry="3" style="stroke: #000000; stroke-width: 1.0;"/><text fill="#000000" font-family="sans-serif" font-size="11" lengthAdjust="spacingAndGlyphs" textLength="217" x="1484" y="198.6684">created_at : TIMESTAMP WITH TIME ZONE</text><text fill="#000000" font-family="sans-serif" font-size="11" lengthAdjust="spacingAndGlyphs" textLength="222" x="1484" y="213.6502">updated_at : TIMESTAMP WITH TIME ZONE</text><!--MD5=[27eae30ca0b38327bd39281f4aa87201]
class wwv--><rect fill="#FFFFFF" filter="url(#f126oodmkuug39)" height="212.8008" id="wwv" style="stroke: #000000; stroke-width: 1.5;" width="244" x="665" y="360"/><ellipse cx="723.25" cy="376" fill="#ADD1B2" rx="11" ry="11" style="stroke: #000000; stroke-width: 1.0;"/><path d="M719.6094,382.5 L719.6094,370.3594 L727.2656,370.3594 L727.2656,372.4844 L721.9844,372.4844 L721.9844,375.1406 L727,375.1406 L727,377.2656 L721.9844,377.2656 L721.9844,380.375 L727.2656,380.375 L727.2656,382.5 L719.6094,382.5 Z "/><text fill="#000000" font-family="sans-serif" font-size="12" lengthAdjust="spacingAndGlyphs" textLength="119" x="743.75" y="380.656">wwv_announcements</text><line style="stroke: #000000; stroke-width: 1.5;" x1="666" x2="908" y1="392" y2="392"/><ellipse cx="676" cy="403" fill="#000000" rx="3" ry="3" style="stroke: #000000; stroke-width: 1.0;"/><text fill="#000000" font-family="sans-serif" font-size="11" lengthAdjust="spacingAndGlyphs" textLength="84" x="685" y="407.7589">id : SERIAL «PK»</text><line style="stroke: #000000; stroke-width: 1.0;" x1="666" x2="908" y1="414.9819" y2="414.9819"/><ellipse cx="676" cy="425.9819" fill="#000000" rx="3" ry="3" style="stroke: #000000; stroke-width: 1.0;"/><text fill="#000000" font-family="sans-serif" font-size="11" lengthAdjust="spacingAndGlyphs" textLength="201" x="685" y="430.7408">raw_announcement_id : INTEGER «FK»</text><ellipse cx="676" cy="440.9638" fill="#000000" rx="3" ry="3" style="stroke: #000000; stroke-width: 1.0;"/><text fill="#000000" font-family="sans-serif" font-size="11" lengthAdjust="spacingAndGlyphs" textLength="218" x="685" y="445.7227">timestamp : TIMESTAMP WITH TIME ZONE</text><ellipse cx="676" cy="455.9457" fill="#000000" rx="3" ry="3" style="stroke: #000000; stroke-width: 1.0;"/><text fill="#000000" font-family="sans-serif" font-size="11" lengthAdjust="spacingAndGlyphs" textLength="78" x="685" y="460.7046">raw_text : TEXT</text><text fill="#000000" font-family="sans-serif" font-size="11" lengthAdjust="spacingAndGlyphs" textLength="105" x="685" y="475.6865">solar_flux : INTEGER</text><text fill="#000000" font-family="sans-serif" font-size="11" lengthAdjust="spacingAndGlyphs" textLength="94" x="685" y="490.6684">a_index : INTEGER</text><text fill="#000000" font-family="sans-serif" font-size="11" lengthAdjust="spacingAndGlyphs" textLength="94" x="685" y="505.6502">k_index : INTEGER</text><text fill="#000000" font-family="sans-serif" font-size="11" lengthAdjust="spacingAndGlyphs" textLength="143" x="685" y="520.6321">sunspot_number : INTEGER</text><text fill="#000000" font-family="sans-serif" font-size="11" lengthAdjust="spacingAndGlyphs" textLength="184" x="685" y="535.614">announcement_type : VARCHAR(20)</text><text fill="#000000" font-family="sans-serif" font-size="11" lengthAdjust="spacingAndGlyphs" textLength="163" x="685" y="550.5959">parsed_successfully : BOOLEAN</text><ellipse cx="676" cy="560.8189" fill="#000000" rx="3" ry="3" style="stroke: #000000; stroke-width: 1.0;"/><text fill="#000000" font-family="sans-serif" font-size="11" lengthAdjust="spacingAndGlyphs" textLength="217" x="685" y="565.5778">created_at : TIMESTAMP WITH TIME ZONE</text><!--MD5=[6a494a1aafb5f950e923334cc8ccc2fb]
class grids--><rect fill="#FFFFFF" filter="url(#f126oodmkuug39)" height="92.9457" id="grids" style="stroke: #000000; stroke-width: 1.5;" width="148" x="279" y="869"/><ellipse cx="313.8" cy="885" fill="#ADD1B2" rx="11" ry="11" style="stroke: #000000; stroke-width: 1.0;"/><path d="M310.1594,891.5 L310.1594,879.3594 L317.8156,879.3594 L317.8156,881.4844 L312.5344,881.4844 L312.5344,884.1406 L317.55,884.1406 L317.55,886.2656 L312.5344,886.2656 L312.5344,889.375 L317.8156,889.375 L317.8156,891.5 L310.1594,891.5 Z "/><text fill="#000000" font-family="sans-serif" font-size="12" lengthAdjust="spacingAndGlyphs" textLength="72" x="332.2" y="889.656">grid_squares</text><line style="stroke: #000000; stroke-width: 1.5;" x1="280" x2="426" y1="901" y2="901"/><ellipse cx="290" cy="912" fill="#000000" rx="3" ry="3" style="stroke: #000000; stroke-width: 1.0;"/><text fill="#000000" font-family="sans-serif" font-size="11" lengthAdjust="spacingAndGlyphs" textLength="122" x="299" y="916.7589">grid : VARCHAR(6) «PK»</text><line style="stroke: #000000; stroke-width: 1.0;" x1="280" x2="426" y1="923.9819" y2="923.9819"/><ellipse cx="290" cy="934.9819" fill="#000000" rx="3" ry="3" style="stroke: #000000; stroke-width: 1.0;"/><text fill="#000000" font-family="sans-serif" font-size="11" lengthAdjust="spacingAndGlyphs" textLength="93" x="299" y="939.7408">lat : NUMERIC(8,4)</text><ellipse cx="290" cy="949.9638" fill="#000000" rx="3" ry="3" style="stroke: #000000; stroke-width: 1.0;"/><text fill="#000000" font-family="sans-serif" font-size="11" lengthAdjust="spacingAndGlyphs" textLength="97" x="299" y="954.7227">lon : NUMERIC(9,4)</text><!--MD5=[b04f34d84c2b9f4d3207d4d237265a88]
class spot_grids--><rect fill="#FFFFFF" filter="url(#f126oodmkuug39)" height="122.9094" id="spot_grids" style="stroke: #000000; stroke-width: 1.5;" width="243" x="279.5" y="659.5"/><ellipse cx="346.25" cy="675.5" fill="#ADD1B2" rx="11" ry="11" style="stroke: #000000; stroke-width: 1.0;"/><path d="M342.6094,682 L342.6094,669.8594 L350.2656,669.8594 L350.2656,671.9844 L344.9844,671.9844 L344.9844,674.6406 L350,674.6406 L350,676.7656 L344.9844,676.7656 L344.9844,679.875 L350.2656,679.875 L350.2656,682 L342.6094,682 Z "/><text fill="#000000" font-family="sans-serif" font-size="12" lengthAdjust="spacingAndGlyphs" textLength="101" x="366.75" y="680.156">spot_grid_squares</text><line style="stroke: #000000; stroke-width: 1.5;" x1="280.5" x2="521.5" y1="691.5" y2="691.5"/><ellipse cx="290.5" cy="702.5" fill="#000000" rx="3" ry="3" style="stroke: #000000; stroke-width: 1.0;"/><text fill="#000000" font-family="sans-serif" font-size="11" lengthAdjust="spacingAndGlyphs" textLength="84" x="299.5" y="707.2589">id : SERIAL «PK»</text><line style="stroke: #000000; stroke-width: 1.0;" x1="280.5" x2="521.5" y1="714.4819" y2="714.4819"/><ellipse cx="290.5" cy="725.4819" fill="#000000" rx="3" ry="3" style="stroke: #000000; stroke-width: 1.0;"/><text fill="#000000" font-family="sans-serif" font-size="11" lengthAdjust="spacingAndGlyphs" textLength="190" x="299.5" y="730.2408">dx_spot_id : INTEGER «FK» «unique»</text><ellipse cx="290.5" cy="740.4638" fill="#000000" rx="3" ry="3" style="stroke: #000000; stroke-width: 1.0;"/><text fill="#000000" font-family="sans-serif" font-size="11" lengthAdjust="spacingAndGlyphs" textLength="133" x="299.5" y="745.2227">source_grid : VARCHAR(6)</text><ellipse cx="290.5" cy="755.4457" fill="#000000" rx="3" ry="3" style="stroke: #000000; stroke-width: 1.0;"/><text fill="#000000" font-family="sans-serif" font-size="11" lengthAdjust="spacingAndGlyphs" textLength="120" x="299.5" y="760.2046">dest_grid : VARCHAR(6)</text><ellipse cx="290.5" cy="770.4276" fill="#000000" rx="3" ry="3" style="stroke: #000000; stroke-width: 1.0;"/><text fill="#000000" font-family="sans-serif" font-size="11" lengthAdjust="spacingAndGlyphs" textLength="217" x="299.5" y="775.1865">created_at : TIMESTAMP WITH TIME ZONE</text><path d="M944.5,435 L944.5,498.118 L1143.5,498.118 L1143.5,445 L1133.5,435 L944.5,435 " fill="#FBFB77" filter="url(#f126oodmkuug39)" style="stroke: #A80036; stroke-width: 1.0;"/><path d="M1133.5,435 L1133.5,445 L1143.5,445 L1133.5,435 " fill="#FBFB77" style="stroke: #A80036; stroke-width: 1.0;"/><text fill="#000000" font-family="sans-serif" font-size="13" lengthAdjust="spacingAndGlyphs" textLength="161" x="950.5" y="453.897">Stores original, unmodified</text><text fill="#000000" font-family="sans-serif" font-size="13" lengthAdjust="spacingAndGlyphs" textLength="178" x="950.5" y="471.603">DX spot messages as received</text><text fill="#000000" font-family="sans-serif" font-size="13" lengthAdjust="spacingAndGlyphs" textLength="148" x="950.5" y="489.309">from the cluster network</text><path d="M557.5,689.5 L557.5,752.618 L758.5,752.618 L758.5,699.5 L748.5,689.5 L557.5,689.5 " fill="#FBFB77" filter="url(#f126oodmkuug39)" style="stroke: #A80036; stroke-width: 1.0;"/><path d="M748.5,689.5 L748.5,699.5 L758.5,699.5 L748.5,689.5 " fill="#FBFB77" style="stroke: #A80036; stroke-width: 1.0;"/><text fill="#000000" font-family="sans-serif" font-size="13" lengthAdjust="spacingAndGlyphs" textLength="130" x="563.5" y="708.397">Parsed spot data with</text><text fill="#000000" font-family="sans-serif" font-size="13" lengthAdjust="spacingAndGlyphs" textLength="117" x="563.5" y="726.103">structured fields for</text><text fill="#000000" font-family="sans-serif" font-size="13" lengthAdjust="spacingAndGlyphs" textLength="180" x="563.5" y="743.809">efficient querying and analysis</text><path d="M6,884 L6,947.118 A0,0 0 0 0 6,947.118 L244,947.118 A0,0 0 0 0 244,947.118 L244,894 L234,884 L151,884 L147,790.12 L143,884 L6,884 A0,0 0 0 0 6,884 " fill="#FBFB77" filter="url(#f126oodmkuug39)" style="stroke: #A80036; stroke-width: 1.0;"/><path d="M234,884 L234,894 L244,894 L234,884 " fill="#FBFB77" style="stroke: #A80036; stroke-width: 1.0;"/><text fill="#000000" font-family="sans-serif" font-size="13" lengthAdjust="spacingAndGlyphs" textLength="185" x="12" y="902.897">Tracks statistics for all callsigns,</text><text fill="#000000" font-family="sans-serif" font-size="13" lengthAdjust="spacingAndGlyphs" textLength="212" x="12" y="920.603">both spotters and spotted stations.</text><text fill="#000000" font-family="sans-serif" font-size="13" lengthAdjust="spacingAndGlyphs" textLength="217" x="12" y="938.309">Used for leaderboards and analytics.</text><path d="M1179,426 L1179,506.8241 A0,0 0 0 0 1179,506.8241 L1393,506.8241 A0,0 0 0 0 1393,506.8241 L1393,436 L1383,426 L1290,426 L1286,281.06 L1282,426 L1179,426 A0,0 0 0 0 1179,426 " fill="#FBFB77" filter="url(#f126oodmkuug39)" style="stroke: #A80036; stroke-width: 1.0;"/><path d="M1383,426 L1383,436 L1393,436 L1383,426 " fill="#FBFB77" style="stroke: #A80036; stroke-width: 1.0;"/><text fill="#000000" font-family="sans-serif" font-size="13" lengthAdjust="spacingAndGlyphs" textLength="173" x="1185" y="444.897">User accounts for dashboard</text><text fill="#000000" font-family="sans-serif" font-size="13" lengthAdjust="spacingAndGlyphs" textLength="190" x="1185" y="462.603">authentication and preferences.</text><text fill="#000000" font-family="sans-serif" font-size="13" lengthAdjust="spacingAndGlyphs" textLength="148" x="1185" y="480.309">Added in homework5 for</text><text fill="#000000" font-family="sans-serif" font-size="13" lengthAdjust="spacingAndGlyphs" textLength="193" x="1185" y="498.0151">personalized features and alerts.</text><path d="M1475.5,426 L1475.5,506.8241 A0,0 0 0 0 1475.5,506.8241 L1700.5,506.8241 A0,0 0 0 0 1700.5,506.8241 L1700.5,436 L1690.5,426 L1592,426 L1588,221.22 L1584,426 L1475.5,426 A0,0 0 0 0 1475.5,426 " fill="#FBFB77" filter="url(#f126oodmkuug39)" style="stroke: #A80036; stroke-width: 1.0;"/><path d="M1690.5,426 L1690.5,436 L1700.5,436 L1690.5,426 " fill="#FBFB77" style="stroke: #A80036; stroke-width: 1.0;"/><text fill="#000000" font-family="sans-serif" font-size="13" lengthAdjust="spacingAndGlyphs" textLength="204" x="1481.5" y="444.897">Geographic lookup table mapping</text><text fill="#000000" font-family="sans-serif" font-size="13" lengthAdjust="spacingAndGlyphs" textLength="182" x="1481.5" y="462.603">amateur radio callsign prefixes</text><text fill="#000000" font-family="sans-serif" font-size="13" lengthAdjust="spacingAndGlyphs" textLength="175" x="1481.5" y="480.309">to countries and coordinates.</text><text fill="#000000" font-family="sans-serif" font-size="13" lengthAdjust="spacingAndGlyphs" textLength="167" x="1481.5" y="498.0151">Used for map visualizations.</text><path d="M793.5,680.5 L793.5,761.3241 A0,0 0 0 0 793.5,761.3241 L1066.5,761.3241 A0,0 0 0 0 1066.5,761.3241 L1066.5,690.5 L1056.5,680.5 L855.25,680.5 L851.25,573.32 L847.25,680.5 L793.5,680.5 A0,0 0 0 0 793.5,680.5 " fill="#FBFB77" filter="url(#f126oodmkuug39)" style="stroke: #A80036; stroke-width: 1.0;"/><path d="M1056.5,680.5 L1056.5,690.5 L1066.5,690.5 L1056.5,680.5 " fill="#FBFB77" style="stroke: #A80036; stroke-width: 1.0;"/><text fill="#000000" font-family="sans-serif" font-size="13" lengthAdjust="spacingAndGlyphs" textLength="252" x="799.5" y="699.397">Stores WWV propagation announcements</text><text fill="#000000" font-family="sans-serif" font-size="13" lengthAdjust="spacingAndGlyphs" textLength="218" x="799.5" y="717.103">with solar data (SFI, A-index, K-index,</text><text fill="#000000" font-family="sans-serif" font-size="13" lengthAdjust="spacingAndGlyphs" textLength="193" x="799.5" y="734.809">sunspot number). Used for solar</text><text fill="#000000" font-family="sans-serif" font-size="13" lengthAdjust="spacingAndGlyphs" textLength="237" x="799.5" y="752.5151">activity tracking and dashboard display.</text><path d="M247,1023 L247,1103.8241 A0,0 0 0 0 247,1103.8241 L459,1103.8241 A0,0 0 0 0 459,1103.8241 L459,1033 L449,1023 L357,1023 L353,962.33 L349,1023 L247,1023 A0,0 0 0 0 247,1023 " fill="#FBFB77" filter="url(#f126oodmkuug39)" style="stroke: #A80036; stroke-width: 1.0;"/><path d="M449,1023 L449,1033 L459,1033 L449,1023 " fill="#FBFB77" style="stroke: #A80036; stroke-width: 1.0;"/><text fill="#000000" font-family="sans-serif" font-size="13" lengthAdjust="spacingAndGlyphs" textLength="191" x="253" y="1041.897">Maidenhead grid square lookup</text><text fill="#000000" font-family="sans-serif" font-size="13" lengthAdjust="spacingAndGlyphs" textLength="171" x="253" y="1059.603">table with latitude/longitude</text><text fill="#000000" font-family="sans-serif" font-size="13" lengthAdjust="spacingAndGlyphs" textLength="187" x="253" y="1077.309">coordinates for fast geographic</text><text fill="#000000" font-family="sans-serif" font-size="13" lengthAdjust="spacingAndGlyphs" textLength="156" x="253" y="1095.0151">calculations and mapping.</text><path d="M462.5,875 L462.5,955.8241 A0,0 0 0 0 462.5,955.8241 L657.5,955.8241 A0,0 0 0 0 657.5,955.8241 L657.5,885 L647.5,875 L496.5,875 L492.5,782.54 L488.5,875 L462.5,875 A0,0 0 0 0 462.5,875 " fill="#FBFB77" filter="url(#f126oodmkuug39)" style="stroke: #A80036; stroke-width: 1.0;"/><path d="M647.5,875 L647.5,885 L657.5,885 L647.5,875 " fill="#FBFB77" style="stroke: #A80036; stroke-width: 1.0;"/><text fill="#000000" font-family="sans-serif" font-size="13" lengthAdjust="spacingAndGlyphs" textLength="174" x="468.5" y="893.897">Links DX spots to grid square</text><text fill="#000000" font-family="sans-serif" font-size="13" lengthAdjust="spacingAndGlyphs" textLength="166" x="468.5" y="911.603">pairs (spotter → DX station).</text><text fill="#000000" font-family="sans-serif" font-size="13" lengthAdjust="spacingAndGlyphs" textLength="145" x="468.5" y="929.309">Enables great circle path</text><text fill="#000000" font-family="sans-serif" font-size="13" lengthAdjust="spacingAndGlyphs" textLength="132" x="468.5" y="947.0151">visualization on maps.</text><!--MD5=[8ef9d092a2732b4258807506dbeadd09]
link raw to spots--><path d="M702.74,145 C702.74,145 401,145 401,145 C401,145 401,351.89 401,351.89 " fill="none" id="raw-spots" style="stroke: #000000; stroke-width: 1.0;"/><line style="stroke: #000000; stroke-width: 1.0;" x1="401" x2="407" y1="351.89" y2="359.89"/><line style="stroke: #000000; stroke-width: 1.0;" x1="401" x2="395" y1="351.89" y2="359.89"/><line style="stroke: #000000; stroke-width: 1.0;" x1="401" x2="401" y1="351.89" y2="359.89"/><ellipse cx="401" cy="345.89" fill="none" rx="4" ry="4" style="stroke: #000000; stroke-width: 1.0;"/><line style="stroke: #000000; stroke-width: 1.0;" x1="706.74" x2="706.74" y1="141" y2="149"/><line style="stroke: #000000; stroke-width: 1.0;" x1="703.74" x2="703.74" y1="141" y2="149"/><line style="stroke: #000000; stroke-width: 1.0;" x1="702.74" x2="710.74" y1="145" y2="145"/><text fill="#000000" font-family="sans-serif" font-size="13" lengthAdjust="spacingAndGlyphs" textLength="72" x="609" y="325.897">raw_spot_id</text><!--MD5=[8f5565f5621e9a9b02a76649b693b202]
link raw to wwv--><path d="M787,199.32 C787,199.32 787,351.69 787,351.69 " fill="none" id="raw-wwv" style="stroke: #000000; stroke-width: 1.0;"/><line style="stroke: #000000; stroke-width: 1.0;" x1="787" x2="793" y1="351.69" y2="359.69"/><line style="stroke: #000000; stroke-width: 1.0;" x1="787" x2="781" y1="351.69" y2="359.69"/><line style="stroke: #000000; stroke-width: 1.0;" x1="787" x2="787" y1="351.69" y2="359.69"/><ellipse cx="787" cy="345.69" fill="none" rx="4" ry="4" style="stroke: #000000; stroke-width: 1.0;"/><line style="stroke: #000000; stroke-width: 1.0;" x1="783" x2="791" y1="195.32" y2="195.32"/><line style="stroke: #000000; stroke-width: 1.0;" x1="783" x2="791" y1="198.32" y2="198.32"/><line style="stroke: #000000; stroke-width: 1.0;" x1="787" x2="787" y1="199.32" y2="191.32"/><text fill="#000000" font-family="sans-serif" font-size="13" lengthAdjust="spacingAndGlyphs" textLength="137" x="788" y="325.897">raw_announcement_id</text><!--MD5=[678fd3281bc4e737845dc08025bdbd5a]
link spots to calls--><path d="M357.75,581.14 C357.75,581.14 357.75,655 357.75,655 C357.75,655 252.05,655 252.05,655 " fill="none" id="spots-calls" style="stroke: #000000; stroke-width: 1.0;"/><line style="stroke: #000000; stroke-width: 1.0;" x1="248.05" x2="248.05" y1="659" y2="651"/><line style="stroke: #000000; stroke-width: 1.0;" x1="251.05" x2="251.05" y1="659" y2="651"/><line style="stroke: #000000; stroke-width: 1.0;" x1="252.05" x2="244.05" y1="655" y2="655"/><line style="stroke: #000000; stroke-width: 1.0;" x1="357.75" x2="351.75" y1="581.14" y2="573.14"/><line style="stroke: #000000; stroke-width: 1.0;" x1="357.75" x2="363.75" y1="581.14" y2="573.14"/><line style="stroke: #000000; stroke-width: 1.0;" x1="357.75" x2="357.75" y1="581.14" y2="573.14"/><ellipse cx="357.75" cy="587.14" fill="none" rx="4" ry="4" style="stroke: #000000; stroke-width: 1.0;"/><text fill="#000000" font-family="sans-serif" font-size="13" lengthAdjust="spacingAndGlyphs" textLength="40" x="164" y="617.897">dx_call</text><!--MD5=[678fd3281bc4e737845dc08025bdbd5a]
link spots to calls--><path d="M401,581.17 C401,581.17 401,657 401,657 C401,657 252.11,657 252.11,657 " fill="none" id="spots-calls-1" style="stroke: #000000; stroke-width: 1.0;"/><line style="stroke: #000000; stroke-width: 1.0;" x1="248.11" x2="248.11" y1="661" y2="653"/><line style="stroke: #000000; stroke-width: 1.0;" x1="251.11" x2="251.11" y1="661" y2="653"/><line style="stroke: #000000; stroke-width: 1.0;" x1="252.11" x2="244.11" y1="657" y2="657"/><line style="stroke: #000000; stroke-width: 1.0;" x1="401" x2="395" y1="581.17" y2="573.17"/><line style="stroke: #000000; stroke-width: 1.0;" x1="401" x2="407" y1="581.17" y2="573.17"/><line style="stroke: #000000; stroke-width: 1.0;" x1="401" x2="401" y1="581.17" y2="573.17"/><ellipse cx="401" cy="587.17" fill="none" rx="4" ry="4" style="stroke: #000000; stroke-width: 1.0;"/><text fill="#000000" font-family="sans-serif" font-size="13" lengthAdjust="spacingAndGlyphs" textLength="69" x="276" y="617.897">spotter_call</text><!--MD5=[56e2834889acf4a9a152b92a38cf9fc4]
link spots to spot_grids--><path d="M444.25,581.32 C444.25,581.32 444.25,651.46 444.25,651.46 " fill="none" id="spots-spot_grids" style="stroke: #000000; stroke-width: 1.0;"/><line style="stroke: #000000; stroke-width: 1.0;" x1="444.25" x2="444.25" y1="648.46" y2="659.46"/><ellipse cx="444.25" cy="648.46" fill="none" rx="4" ry="4" style="stroke: #000000; stroke-width: 1.0;"/><line style="stroke: #000000; stroke-width: 1.0;" x1="448.25" x2="440.25" y1="655.46" y2="655.46"/><line style="stroke: #000000; stroke-width: 1.0;" x1="440.25" x2="448.25" y1="577.32" y2="577.32"/><line style="stroke: #000000; stroke-width: 1.0;" x1="440.25" x2="448.25" y1="580.32" y2="580.32"/><line style="stroke: #000000; stroke-width: 1.0;" x1="444.25" x2="444.25" y1="581.32" y2="573.32"/><text fill="#000000" font-family="sans-serif" font-size="13" lengthAdjust="spacingAndGlyphs" textLength="65" x="402" y="617.897">dx_spot_id</text><!--MD5=[d592d0ac3825316093e4d0c327dc55e3]
link spot_grids to grids--><path d="M328.67,790.54 C328.67,790.54 328.67,860.85 328.67,860.85 " fill="none" id="spot_grids-grids" style="stroke: #000000; stroke-width: 1.0;"/><line style="stroke: #000000; stroke-width: 1.0;" x1="332.67" x2="324.67" y1="864.85" y2="864.85"/><line style="stroke: #000000; stroke-width: 1.0;" x1="332.67" x2="324.67" y1="861.85" y2="861.85"/><line style="stroke: #000000; stroke-width: 1.0;" x1="328.67" x2="328.67" y1="860.85" y2="868.85"/><line style="stroke: #000000; stroke-width: 1.0;" x1="328.67" x2="322.67" y1="790.54" y2="782.54"/><line style="stroke: #000000; stroke-width: 1.0;" x1="328.67" x2="334.67" y1="790.54" y2="782.54"/><line style="stroke: #000000; stroke-width: 1.0;" x1="328.67" x2="328.67" y1="790.54" y2="782.54"/><ellipse cx="328.67" cy="796.54" fill="none" rx="4" ry="4" style="stroke: #000000; stroke-width: 1.0;"/><text fill="#000000" font-family="sans-serif" font-size="13" lengthAdjust="spacingAndGlyphs" textLength="70" x="311" y="834.897">source_grid</text><!--MD5=[d592d0ac3825316093e4d0c327dc55e3]
link spot_grids to grids--><path d="M377.83,790.54 C377.83,790.54 377.83,860.85 377.83,860.85 " fill="none" id="spot_grids-grids-1" style="stroke: #000000; stroke-width: 1.0;"/><line style="stroke: #000000; stroke-width: 1.0;" x1="381.83" x2="373.83" y1="864.85" y2="864.85"/><line style="stroke: #000000; stroke-width: 1.0;" x1="381.83" x2="373.83" y1="861.85" y2="861.85"/><line style="stroke: #000000; stroke-width: 1.0;" x1="377.83" x2="377.83" y1="860.85" y2="868.85"/><line style="stroke: #000000; stroke-width: 1.0;" x1="377.83" x2="371.83" y1="790.54" y2="782.54"/><line style="stroke: #000000; stroke-width: 1.0;" x1="377.83" x2="383.83" y1="790.54" y2="782.54"/><line style="stroke: #000000; stroke-width: 1.0;" x1="377.83" x2="377.83" y1="790.54" y2="782.54"/><ellipse cx="377.83" cy="796.54" fill="none" rx="4" ry="4" style="stroke: #000000; stroke-width: 1.0;"/><text fill="#000000" font-family="sans-serif" font-size="13" lengthAdjust="spacingAndGlyphs" textLength="56" x="423" y="834.897">dest_grid</text><!--MD5=[2954598c5bfe3fec2771ff2766bdfa54]
link raw to GMN17--><path d="M863.07,145 C938.85,145 1044,145 1044,145 C1044,145 1044,353.68 1044,434.79 " fill="none" id="raw-GMN17" style="stroke: #000000; stroke-width: 1.0; stroke-dasharray: 7.0,7.0;"/><!--MD5=[334c68ca912415f283e3675a106a7b8c]
link spots to GMN20--><path d="M487.73,467 C545.65,467 611.25,467 611.25,467 C611.25,467 611.25,621.26 611.25,689.34 " fill="none" id="spots-GMN20" style="stroke: #000000; stroke-width: 1.0; stroke-dasharray: 7.0,7.0;"/><!--MD5=[f14cfbdccac9e3e7cd25311d0d25ea18]
@startuml database_schema

skinparam linetype ortho
skinparam class {
    BackgroundColor White
    ArrowColor Black
    BorderColor Black
}

entity "raw_spots" as raw {
    * id : INTEGER <<PK>>
    - -
    * timestamp : TIMESTAMP
    * raw_text : TEXT
}

entity "dx_spots" as spots {
    * id : INTEGER <<PK>>
    - -
    * raw_spot_id : INTEGER <<FK>>
    * timestamp : TIMESTAMP
    * dx_call : VARCHAR(20)
    * frequency : NUMERIC(10,3)
    * spotter_call : VARCHAR(20)
    comment : TEXT
    mode : VARCHAR(10)
    signal_report : VARCHAR(10)
    grid_square : VARCHAR(6)
    band : VARCHAR(10)
}

entity "callsigns" as calls {
    * id : INTEGER <<PK>>
    - -
    * callsign : VARCHAR(20) <<unique>>
    * first_seen : TIMESTAMP
    * last_seen : TIMESTAMP
    * total_spots : INTEGER
    * total_spotted : INTEGER
}

entity "dashboard_users" as users {
    * id : SERIAL <<PK>>
    - -
    * callsign : VARCHAR(20) <<unique>>
    name : VARCHAR(100)
    grid_square : VARCHAR(6)
    email : VARCHAR(255)
    phone : VARCHAR(20)
    * password_hash : VARCHAR(255)
    session_token : VARCHAR(64)
    session_expires_at : TIMESTAMP WITH TIME ZONE
    timezone : VARCHAR(50)
    sms_alerts_enabled : BOOLEAN
    email_alerts_enabled : BOOLEAN
    preferences : JSONB
    * created_at : TIMESTAMP WITH TIME ZONE
    last_login : TIMESTAMP WITH TIME ZONE
}

entity "callsign_prefixes" as prefixes {
    * id : SERIAL <<PK>>
    - -
    * prefix : VARCHAR(10) <<unique>>
    * country : VARCHAR(255)
    * latitude : DECIMAL(9,6)
    * longitude : DECIMAL(10,6)
    * created_at : TIMESTAMP WITH TIME ZONE
    updated_at : TIMESTAMP WITH TIME ZONE
}

entity "wwv_announcements" as wwv {
    * id : SERIAL <<PK>>
    - -
    * raw_announcement_id : INTEGER <<FK>>
    * timestamp : TIMESTAMP WITH TIME ZONE
    * raw_text : TEXT
    solar_flux : INTEGER
    a_index : INTEGER
    k_index : INTEGER
    sunspot_number : INTEGER
    announcement_type : VARCHAR(20)
    parsed_successfully : BOOLEAN
    * created_at : TIMESTAMP WITH TIME ZONE
}

entity "grid_squares" as grids {
    * grid : VARCHAR(6) <<PK>>
    - -
    * lat : NUMERIC(8,4)
    * lon : NUMERIC(9,4)
}

entity "spot_grid_squares" as spot_grids {
    * id : SERIAL <<PK>>
    - -
    * dx_spot_id : INTEGER <<FK>> <<unique>>
    * source_grid : VARCHAR(6)
    * dest_grid : VARCHAR(6)
    * created_at : TIMESTAMP WITH TIME ZONE
}

raw ||- -o{ spots : "raw_spot_id"
raw ||- -o{ wwv : "raw_announcement_id"
spots }o- -|| calls : "dx_call"
spots }o- -|| calls : "spotter_call"
spots ||- -o| spot_grids : "dx_spot_id"
spot_grids }o- -|| grids : "source_grid"
spot_grids }o- -|| grids : "dest_grid"

note bottom of raw
  Stores original, unmodified
  DX spot messages as received
  from the cluster network
end note

note bottom of spots
  Parsed spot data with
  structured fields for
  efficient querying and analysis
end note

note bottom of calls
  Tracks statistics for all callsigns,
  both spotters and spotted stations.
  Used for leaderboards and analytics.
end note

note bottom of users
  User accounts for dashboard
  authentication and preferences.
  Added in homework5 for
  personalized features and alerts.
end note

note bottom of prefixes
  Geographic lookup table mapping
  amateur radio callsign prefixes
  to countries and coordinates.
  Used for map visualizations.
end note

note bottom of wwv
  Stores WWV propagation announcements
  with solar data (SFI, A-index, K-index,
  sunspot number). Used for solar
  activity tracking and dashboard display.
end note

note bottom of grids
  Maidenhead grid square lookup
  table with latitude/longitude
  coordinates for fast geographic
  calculations and mapping.
end note

note bottom of spot_grids
  Links DX spots to grid square
  pairs (spotter → DX station).
  Enables great circle path
  visualization on maps.
end note

@enduml

PlantUML version 1.2020.02(Sun Mar 01 02:22:07 PST 2020)
(GPL source distribution)
Java Runtime: OpenJDK Runtime Environment
JVM: OpenJDK 64-Bit Server VM
Java Version: 17.0.17+10-Debian-1deb12u1
Operating System: Linux
Default Encoding: UTF-8
Language: en
Country: US
--></g></svg>